<?xml version="1.0" encoding="utf-8" standalone="no"?>
<!DOCTYPE svg PUBLIC "-//W3C//DTD SVG 1.1//EN"
  "http://www.w3.org/Graphics/SVG/1.1/DTD/svg11.dtd">
<!-- Created with matplotlib (https://matplotlib.org/) -->
<svg height="307.762pt" version="1.1" viewBox="0 0 405.645 307.762" width="405.645pt" xmlns="http://www.w3.org/2000/svg" xmlns:xlink="http://www.w3.org/1999/xlink">
 <defs>
  <style type="text/css">
*{stroke-linecap:butt;stroke-linejoin:round;}
  </style>
 </defs>
 <g id="figure_1">
  <g id="patch_1">
   <path d="M 0 307.762 
L 405.645 307.762 
L 405.645 0 
L 0 0 
z
" style="fill:#ffffff;"/>
  </g>
  <g id="axes_1">
   <g id="patch_2">
    <path d="M 41.325 273.312 
L 398.445 273.312 
L 398.445 7.2 
L 41.325 7.2 
z
" style="fill:#ffffff;"/>
   </g>
   <g id="matplotlib.axis_1">
    <g id="xtick_1">
     <g id="line2d_1">
      <path clip-path="url(#pa80434d353)" d="M 57.557727 273.312 
L 57.557727 7.2 
" style="fill:none;stroke:#b0b0b0;stroke-linecap:square;stroke-width:0.8;"/>
     </g>
     <g id="line2d_2">
      <defs>
       <path d="M 0 0 
L 0 3.5 
" id="mc777e3cdb1" style="stroke:#000000;stroke-width:0.8;"/>
      </defs>
      <g>
       <use style="stroke:#000000;stroke-width:0.8;" x="57.557727" xlink:href="#mc777e3cdb1" y="273.312"/>
      </g>
     </g>
     <g id="text_1">
      <!-- 0.0 -->
      <defs>
       <path d="M 3.125 29.296875 
Q 3.90625 50 6.4375 56.046875 
Q 8.984375 62.109375 13.671875 66.015625 
Q 18.359375 69.921875 25.1875 69.921875 
Q 32.03125 69.921875 37.109375 64.25 
Q 42.1875 58.59375 43.75 50 
Q 45.3125 41.40625 44.71875 30.265625 
Q 44.140625 19.140625 40.8125 12.109375 
Q 37.5 5.078125 30.859375 2.34375 
Q 24.21875 -0.390625 17.578125 2.921875 
Q 10.9375 6.25 8.203125 11.71875 
Q 5.46875 17.1875 4.296875 23.234375 
Q 3.125 29.296875 3.90625 50 
z
M 12.890625 52.734375 
Q 10.546875 31.25 12.5 22.84375 
Q 14.453125 14.453125 18.9375 10.9375 
Q 23.4375 7.421875 28.125 9.5625 
Q 32.8125 11.71875 34.953125 18.15625 
Q 37.109375 24.609375 37.109375 32.21875 
Q 37.109375 39.84375 36.515625 46.09375 
Q 35.9375 52.34375 33 57.421875 
Q 30.078125 62.5 25.1875 62.6875 
Q 20.3125 62.890625 16.59375 57.8125 
Q 12.890625 52.734375 10.546875 31.25 
z
" id="SimHei-48"/>
       <path d="M 16.796875 1.953125 
L 7.8125 1.953125 
L 7.8125 10.546875 
L 16.796875 10.546875 
z
" id="SimHei-46"/>
      </defs>
      <g transform="translate(50.057727 287.187)scale(0.1 -0.1)">
       <use xlink:href="#SimHei-48"/>
       <use x="50" xlink:href="#SimHei-46"/>
       <use x="100" xlink:href="#SimHei-48"/>
      </g>
     </g>
    </g>
    <g id="xtick_2">
     <g id="line2d_3">
      <path clip-path="url(#pa80434d353)" d="M 122.522782 273.312 
L 122.522782 7.2 
" style="fill:none;stroke:#b0b0b0;stroke-linecap:square;stroke-width:0.8;"/>
     </g>
     <g id="line2d_4">
      <g>
       <use style="stroke:#000000;stroke-width:0.8;" x="122.522782" xlink:href="#mc777e3cdb1" y="273.312"/>
      </g>
     </g>
     <g id="text_2">
      <!-- 0.2 -->
      <defs>
       <path d="M 4.6875 3.90625 
Q 5.078125 9.765625 10.15625 14.453125 
Q 15.234375 19.140625 23.046875 29.09375 
Q 30.859375 39.0625 33.203125 44.53125 
Q 35.546875 50 34.953125 53.90625 
Q 34.375 57.8125 31.25 60.34375 
Q 28.125 62.890625 24.015625 62.5 
Q 19.921875 62.109375 16.203125 59.375 
Q 12.5 56.640625 10.546875 51.171875 
L 3.125 52.34375 
Q 6.25 61.328125 11.125 65.421875 
Q 16.015625 69.53125 22.65625 69.921875 
Q 26.5625 70.3125 29.6875 69.71875 
Q 32.8125 69.140625 36.125 66.984375 
Q 39.453125 64.84375 41.59375 60.546875 
Q 43.75 56.25 43.15625 50.1875 
Q 42.578125 44.140625 37.109375 35.734375 
Q 31.640625 27.34375 16.015625 9.375 
L 44.140625 9.375 
L 44.140625 2.34375 
L 4.6875 2.34375 
z
" id="SimHei-50"/>
      </defs>
      <g transform="translate(115.022782 287.187)scale(0.1 -0.1)">
       <use xlink:href="#SimHei-48"/>
       <use x="50" xlink:href="#SimHei-46"/>
       <use x="100" xlink:href="#SimHei-50"/>
      </g>
     </g>
    </g>
    <g id="xtick_3">
     <g id="line2d_5">
      <path clip-path="url(#pa80434d353)" d="M 187.487837 273.312 
L 187.487837 7.2 
" style="fill:none;stroke:#b0b0b0;stroke-linecap:square;stroke-width:0.8;"/>
     </g>
     <g id="line2d_6">
      <g>
       <use style="stroke:#000000;stroke-width:0.8;" x="187.487837" xlink:href="#mc777e3cdb1" y="273.312"/>
      </g>
     </g>
     <g id="text_3">
      <!-- 0.4 -->
      <defs>
       <path d="M 31.25 17.1875 
L 1.171875 17.1875 
L 1.171875 23.828125 
L 32.8125 69.53125 
L 38.671875 69.53125 
L 38.671875 23.828125 
L 48.046875 23.828125 
L 48.046875 17.1875 
L 38.671875 17.1875 
L 38.671875 2.34375 
L 31.25 2.34375 
z
M 31.25 23.828125 
L 31.25 54.6875 
L 9.375 23.828125 
z
" id="SimHei-52"/>
      </defs>
      <g transform="translate(179.987837 287.187)scale(0.1 -0.1)">
       <use xlink:href="#SimHei-48"/>
       <use x="50" xlink:href="#SimHei-46"/>
       <use x="100" xlink:href="#SimHei-52"/>
      </g>
     </g>
    </g>
    <g id="xtick_4">
     <g id="line2d_7">
      <path clip-path="url(#pa80434d353)" d="M 252.452892 273.312 
L 252.452892 7.2 
" style="fill:none;stroke:#b0b0b0;stroke-linecap:square;stroke-width:0.8;"/>
     </g>
     <g id="line2d_8">
      <g>
       <use style="stroke:#000000;stroke-width:0.8;" x="252.452892" xlink:href="#mc777e3cdb1" y="273.312"/>
      </g>
     </g>
     <g id="text_4">
      <!-- 0.6 -->
      <defs>
       <path d="M 3.515625 19.53125 
Q 4.296875 30.859375 6.046875 34.765625 
Q 7.8125 38.671875 11.328125 44.53125 
L 27.34375 69.53125 
L 36.328125 69.53125 
L 19.921875 43.75 
Q 30.46875 46.484375 36.71875 42.96875 
Q 42.96875 39.453125 45.109375 34.953125 
Q 47.265625 30.46875 47.453125 25.1875 
Q 47.65625 19.921875 45.890625 14.84375 
Q 44.140625 9.765625 39.640625 5.65625 
Q 35.15625 1.5625 27.140625 1.171875 
Q 19.140625 0.78125 13.46875 4.09375 
Q 7.8125 7.421875 5.65625 13.46875 
Q 3.515625 19.53125 4.296875 30.859375 
z
M 12.5 16.015625 
Q 19.53125 8.59375 25.390625 8.203125 
Q 31.25 7.8125 35.15625 12.109375 
Q 39.0625 16.40625 39.0625 24.609375 
Q 39.0625 32.8125 34.171875 35.9375 
Q 29.296875 39.0625 23.234375 38.28125 
Q 17.1875 37.5 14.453125 32.421875 
Q 11.71875 27.34375 12.109375 21.671875 
Q 12.5 16.015625 19.53125 8.59375 
z
" id="SimHei-54"/>
      </defs>
      <g transform="translate(244.952892 287.187)scale(0.1 -0.1)">
       <use xlink:href="#SimHei-48"/>
       <use x="50" xlink:href="#SimHei-46"/>
       <use x="100" xlink:href="#SimHei-54"/>
      </g>
     </g>
    </g>
    <g id="xtick_5">
     <g id="line2d_9">
      <path clip-path="url(#pa80434d353)" d="M 317.417947 273.312 
L 317.417947 7.2 
" style="fill:none;stroke:#b0b0b0;stroke-linecap:square;stroke-width:0.8;"/>
     </g>
     <g id="line2d_10">
      <g>
       <use style="stroke:#000000;stroke-width:0.8;" x="317.417947" xlink:href="#mc777e3cdb1" y="273.312"/>
      </g>
     </g>
     <g id="text_5">
      <!-- 0.8 -->
      <defs>
       <path d="M 2.734375 16.796875 
Q 2.734375 26.171875 5.078125 30.65625 
Q 7.421875 35.15625 12.890625 37.890625 
Q 8.203125 40.625 6.640625 43.9375 
Q 5.078125 47.265625 4.875 51.5625 
Q 4.6875 55.859375 6.046875 58.984375 
Q 7.421875 62.109375 10.15625 64.84375 
Q 12.890625 67.578125 16.203125 68.546875 
Q 19.53125 69.53125 23.4375 69.53125 
Q 27.34375 69.53125 30.46875 68.75 
Q 33.59375 67.96875 37.109375 65.421875 
Q 40.625 62.890625 42.1875 58.203125 
Q 43.75 53.515625 41.984375 47.265625 
Q 40.234375 41.015625 32.8125 37.5 
Q 39.453125 35.546875 42.1875 31.4375 
Q 44.921875 27.34375 44.921875 21.484375 
Q 44.921875 15.625 43.15625 12.109375 
Q 41.40625 8.59375 39.25 6.25 
Q 37.109375 3.90625 33.390625 2.53125 
Q 29.6875 1.171875 24.015625 1.171875 
Q 18.359375 1.171875 14.25 2.53125 
Q 10.15625 3.90625 7.421875 6.640625 
Q 4.6875 9.375 3.703125 13.078125 
Q 2.734375 16.796875 2.734375 26.171875 
z
M 10.9375 26.5625 
Q 10.546875 17.1875 12.296875 13.671875 
Q 14.0625 10.15625 18.75 9.171875 
Q 23.4375 8.203125 28.515625 9.375 
Q 33.59375 10.546875 35.546875 14.84375 
Q 37.5 19.140625 36.90625 23.4375 
Q 36.328125 27.734375 32.03125 30.65625 
Q 27.734375 33.59375 22.65625 33.203125 
Q 17.578125 32.8125 14.25 29.6875 
Q 10.9375 26.5625 10.546875 17.1875 
z
M 12.109375 56.25 
Q 12.109375 48.4375 14.84375 44.921875 
Q 17.578125 41.40625 23.4375 41.40625 
Q 29.296875 41.40625 32.21875 44.921875 
Q 35.15625 48.4375 34.953125 53.3125 
Q 34.765625 58.203125 31.4375 60.546875 
Q 28.125 62.890625 22.453125 62.5 
Q 16.796875 62.109375 14.453125 59.171875 
Q 12.109375 56.25 12.109375 48.4375 
z
" id="SimHei-56"/>
      </defs>
      <g transform="translate(309.917947 287.187)scale(0.1 -0.1)">
       <use xlink:href="#SimHei-48"/>
       <use x="50" xlink:href="#SimHei-46"/>
       <use x="100" xlink:href="#SimHei-56"/>
      </g>
     </g>
    </g>
    <g id="xtick_6">
     <g id="line2d_11">
      <path clip-path="url(#pa80434d353)" d="M 382.383002 273.312 
L 382.383002 7.2 
" style="fill:none;stroke:#b0b0b0;stroke-linecap:square;stroke-width:0.8;"/>
     </g>
     <g id="line2d_12">
      <g>
       <use style="stroke:#000000;stroke-width:0.8;" x="382.383002" xlink:href="#mc777e3cdb1" y="273.312"/>
      </g>
     </g>
     <g id="text_6">
      <!-- 1.0 -->
      <defs>
       <path d="M 21.875 56.25 
Q 16.796875 51.171875 8.984375 46.484375 
L 8.984375 53.90625 
Q 18.75 60.546875 25 69.53125 
L 29.6875 69.53125 
L 29.6875 2.34375 
L 21.875 2.34375 
z
" id="SimHei-49"/>
      </defs>
      <g transform="translate(374.883002 287.187)scale(0.1 -0.1)">
       <use xlink:href="#SimHei-49"/>
       <use x="50" xlink:href="#SimHei-46"/>
       <use x="100" xlink:href="#SimHei-48"/>
      </g>
     </g>
    </g>
    <g id="text_7">
     <!-- F1 -->
     <defs>
      <path d="M 45.703125 61.328125 
L 13.671875 61.328125 
L 13.671875 39.453125 
L 37.890625 39.453125 
L 37.890625 32.03125 
L 13.671875 32.03125 
L 13.671875 1.953125 
L 4.6875 1.953125 
L 4.6875 68.75 
L 45.703125 68.75 
z
" id="SimHei-70"/>
     </defs>
     <g transform="translate(214.885 299.312)scale(0.1 -0.1)">
      <use xlink:href="#SimHei-70"/>
      <use x="50" xlink:href="#SimHei-49"/>
     </g>
    </g>
   </g>
   <g id="matplotlib.axis_2">
    <g id="ytick_1">
     <g id="line2d_13">
      <path clip-path="url(#pa80434d353)" d="M 41.325 261.534026 
L 398.445 261.534026 
" style="fill:none;stroke:#b0b0b0;stroke-linecap:square;stroke-width:0.8;"/>
     </g>
     <g id="line2d_14">
      <defs>
       <path d="M 0 0 
L -3.5 0 
" id="m289dc3853e" style="stroke:#000000;stroke-width:0.8;"/>
      </defs>
      <g>
       <use style="stroke:#000000;stroke-width:0.8;" x="41.325" xlink:href="#m289dc3853e" y="261.534026"/>
      </g>
     </g>
     <g id="text_8">
      <!-- 0.0 -->
      <g transform="translate(19.325 264.971526)scale(0.1 -0.1)">
       <use xlink:href="#SimHei-48"/>
       <use x="50" xlink:href="#SimHei-46"/>
       <use x="100" xlink:href="#SimHei-48"/>
      </g>
     </g>
    </g>
    <g id="ytick_2">
     <g id="line2d_15">
      <path clip-path="url(#pa80434d353)" d="M 41.325 213.109285 
L 398.445 213.109285 
" style="fill:none;stroke:#b0b0b0;stroke-linecap:square;stroke-width:0.8;"/>
     </g>
     <g id="line2d_16">
      <g>
       <use style="stroke:#000000;stroke-width:0.8;" x="41.325" xlink:href="#m289dc3853e" y="213.109285"/>
      </g>
     </g>
     <g id="text_9">
      <!-- 0.2 -->
      <g transform="translate(19.325 216.546785)scale(0.1 -0.1)">
       <use xlink:href="#SimHei-48"/>
       <use x="50" xlink:href="#SimHei-46"/>
       <use x="100" xlink:href="#SimHei-50"/>
      </g>
     </g>
    </g>
    <g id="ytick_3">
     <g id="line2d_17">
      <path clip-path="url(#pa80434d353)" d="M 41.325 164.684544 
L 398.445 164.684544 
" style="fill:none;stroke:#b0b0b0;stroke-linecap:square;stroke-width:0.8;"/>
     </g>
     <g id="line2d_18">
      <g>
       <use style="stroke:#000000;stroke-width:0.8;" x="41.325" xlink:href="#m289dc3853e" y="164.684544"/>
      </g>
     </g>
     <g id="text_10">
      <!-- 0.4 -->
      <g transform="translate(19.325 168.122044)scale(0.1 -0.1)">
       <use xlink:href="#SimHei-48"/>
       <use x="50" xlink:href="#SimHei-46"/>
       <use x="100" xlink:href="#SimHei-52"/>
      </g>
     </g>
    </g>
    <g id="ytick_4">
     <g id="line2d_19">
      <path clip-path="url(#pa80434d353)" d="M 41.325 116.259803 
L 398.445 116.259803 
" style="fill:none;stroke:#b0b0b0;stroke-linecap:square;stroke-width:0.8;"/>
     </g>
     <g id="line2d_20">
      <g>
       <use style="stroke:#000000;stroke-width:0.8;" x="41.325" xlink:href="#m289dc3853e" y="116.259803"/>
      </g>
     </g>
     <g id="text_11">
      <!-- 0.6 -->
      <g transform="translate(19.325 119.697303)scale(0.1 -0.1)">
       <use xlink:href="#SimHei-48"/>
       <use x="50" xlink:href="#SimHei-46"/>
       <use x="100" xlink:href="#SimHei-54"/>
      </g>
     </g>
    </g>
    <g id="ytick_5">
     <g id="line2d_21">
      <path clip-path="url(#pa80434d353)" d="M 41.325 67.835062 
L 398.445 67.835062 
" style="fill:none;stroke:#b0b0b0;stroke-linecap:square;stroke-width:0.8;"/>
     </g>
     <g id="line2d_22">
      <g>
       <use style="stroke:#000000;stroke-width:0.8;" x="41.325" xlink:href="#m289dc3853e" y="67.835062"/>
      </g>
     </g>
     <g id="text_12">
      <!-- 0.8 -->
      <g transform="translate(19.325 71.272562)scale(0.1 -0.1)">
       <use xlink:href="#SimHei-48"/>
       <use x="50" xlink:href="#SimHei-46"/>
       <use x="100" xlink:href="#SimHei-56"/>
      </g>
     </g>
    </g>
    <g id="ytick_6">
     <g id="line2d_23">
      <path clip-path="url(#pa80434d353)" d="M 41.325 19.410321 
L 398.445 19.410321 
" style="fill:none;stroke:#b0b0b0;stroke-linecap:square;stroke-width:0.8;"/>
     </g>
     <g id="line2d_24">
      <g>
       <use style="stroke:#000000;stroke-width:0.8;" x="41.325" xlink:href="#m289dc3853e" y="19.410321"/>
      </g>
     </g>
     <g id="text_13">
      <!-- 1.0 -->
      <g transform="translate(19.325 22.847821)scale(0.1 -0.1)">
       <use xlink:href="#SimHei-49"/>
       <use x="50" xlink:href="#SimHei-46"/>
       <use x="100" xlink:href="#SimHei-48"/>
      </g>
     </g>
    </g>
    <g id="text_14">
     <!-- F2 -->
     <g transform="translate(14.075 145.256)rotate(-90)scale(0.1 -0.1)">
      <use xlink:href="#SimHei-70"/>
      <use x="50" xlink:href="#SimHei-50"/>
     </g>
    </g>
   </g>
   <g id="line2d_25">
    <defs>
     <path d="M 0 1.5 
C 0.397805 1.5 0.77937 1.341951 1.06066 1.06066 
C 1.341951 0.77937 1.5 0.397805 1.5 0 
C 1.5 -0.397805 1.341951 -0.77937 1.06066 -1.06066 
C 0.77937 -1.341951 0.397805 -1.5 0 -1.5 
C -0.397805 -1.5 -0.77937 -1.341951 -1.06066 -1.06066 
C -1.341951 -0.77937 -1.5 -0.397805 -1.5 0 
C -1.5 0.397805 -1.341951 0.77937 -1.06066 1.06066 
C -0.77937 1.341951 -0.397805 1.5 0 1.5 
z
" id="mb9ebfac9fb" style="stroke:#4682b4;"/>
    </defs>
    <g clip-path="url(#pa80434d353)">
     <use style="fill:#4682b4;stroke:#4682b4;" x="382.212273" xlink:href="#mb9ebfac9fb" y="261.216"/>
     <use style="fill:#4682b4;stroke:#4682b4;" x="379.286018" xlink:href="#mb9ebfac9fb" y="260.14954"/>
     <use style="fill:#4682b4;stroke:#4682b4;" x="377.282737" xlink:href="#mb9ebfac9fb" y="259.376216"/>
     <use style="fill:#4682b4;stroke:#4682b4;" x="376.856552" xlink:href="#mb9ebfac9fb" y="259.210393"/>
     <use style="fill:#4682b4;stroke:#4682b4;" x="369.671964" xlink:href="#mb9ebfac9fb" y="256.470794"/>
     <use style="fill:#4682b4;stroke:#4682b4;" x="366.558773" xlink:href="#mb9ebfac9fb" y="255.302268"/>
     <use style="fill:#4682b4;stroke:#4682b4;" x="363.919488" xlink:href="#mb9ebfac9fb" y="254.412882"/>
     <use style="fill:#4682b4;stroke:#4682b4;" x="360.598942" xlink:href="#mb9ebfac9fb" y="253.038614"/>
     <use style="fill:#4682b4;stroke:#4682b4;" x="357.612436" xlink:href="#mb9ebfac9fb" y="251.905906"/>
     <use style="fill:#4682b4;stroke:#4682b4;" x="354.938923" xlink:href="#mb9ebfac9fb" y="250.816095"/>
     <use style="fill:#4682b4;stroke:#4682b4;" x="352.527756" xlink:href="#mb9ebfac9fb" y="249.85794"/>
     <use style="fill:#4682b4;stroke:#4682b4;" x="349.108295" xlink:href="#mb9ebfac9fb" y="248.559235"/>
     <use style="fill:#4682b4;stroke:#4682b4;" x="345.979764" xlink:href="#mb9ebfac9fb" y="247.432187"/>
     <use style="fill:#4682b4;stroke:#4682b4;" x="345.714198" xlink:href="#mb9ebfac9fb" y="247.331625"/>
     <use style="fill:#4682b4;stroke:#4682b4;" x="340.812398" xlink:href="#mb9ebfac9fb" y="245.315727"/>
     <use style="fill:#4682b4;stroke:#4682b4;" x="337.855503" xlink:href="#mb9ebfac9fb" y="244.189376"/>
     <use style="fill:#4682b4;stroke:#4682b4;" x="335.62118" xlink:href="#mb9ebfac9fb" y="243.104279"/>
     <use style="fill:#4682b4;stroke:#4682b4;" x="332.771367" xlink:href="#mb9ebfac9fb" y="242.065727"/>
     <use style="fill:#4682b4;stroke:#4682b4;" x="330.656456" xlink:href="#mb9ebfac9fb" y="241.085269"/>
     <use style="fill:#4682b4;stroke:#4682b4;" x="327.620285" xlink:href="#mb9ebfac9fb" y="239.958822"/>
     <use style="fill:#4682b4;stroke:#4682b4;" x="325.255519" xlink:href="#mb9ebfac9fb" y="238.995234"/>
     <use style="fill:#4682b4;stroke:#4682b4;" x="323.578942" xlink:href="#mb9ebfac9fb" y="237.988754"/>
     <use style="fill:#4682b4;stroke:#4682b4;" x="320.533368" xlink:href="#mb9ebfac9fb" y="237.09758"/>
     <use style="fill:#4682b4;stroke:#4682b4;" x="318.397754" xlink:href="#mb9ebfac9fb" y="236.145677"/>
     <use style="fill:#4682b4;stroke:#4682b4;" x="315.278993" xlink:href="#mb9ebfac9fb" y="234.877411"/>
     <use style="fill:#4682b4;stroke:#4682b4;" x="312.97389" xlink:href="#mb9ebfac9fb" y="233.893853"/>
     <use style="fill:#4682b4;stroke:#4682b4;" x="310.741667" xlink:href="#mb9ebfac9fb" y="232.938118"/>
     <use style="fill:#4682b4;stroke:#4682b4;" x="308.940051" xlink:href="#mb9ebfac9fb" y="232.150237"/>
     <use style="fill:#4682b4;stroke:#4682b4;" x="306.534452" xlink:href="#mb9ebfac9fb" y="231.114439"/>
     <use style="fill:#4682b4;stroke:#4682b4;" x="303.853328" xlink:href="#mb9ebfac9fb" y="230.011984"/>
     <use style="fill:#4682b4;stroke:#4682b4;" x="301.7773" xlink:href="#mb9ebfac9fb" y="229.091673"/>
     <use style="fill:#4682b4;stroke:#4682b4;" x="299.119168" xlink:href="#mb9ebfac9fb" y="228.039638"/>
     <use style="fill:#4682b4;stroke:#4682b4;" x="297.089132" xlink:href="#mb9ebfac9fb" y="227.049564"/>
     <use style="fill:#4682b4;stroke:#4682b4;" x="295.299485" xlink:href="#mb9ebfac9fb" y="226.325348"/>
     <use style="fill:#4682b4;stroke:#4682b4;" x="292.611789" xlink:href="#mb9ebfac9fb" y="225.106597"/>
     <use style="fill:#4682b4;stroke:#4682b4;" x="290.610817" xlink:href="#mb9ebfac9fb" y="224.129969"/>
     <use style="fill:#4682b4;stroke:#4682b4;" x="289.975018" xlink:href="#mb9ebfac9fb" y="223.16019"/>
     <use style="fill:#4682b4;stroke:#4682b4;" x="286.142441" xlink:href="#mb9ebfac9fb" y="222.311873"/>
     <use style="fill:#4682b4;stroke:#4682b4;" x="284.05599" xlink:href="#mb9ebfac9fb" y="221.412326"/>
     <use style="fill:#4682b4;stroke:#4682b4;" x="282.47884" xlink:href="#mb9ebfac9fb" y="220.597793"/>
     <use style="fill:#4682b4;stroke:#4682b4;" x="279.971465" xlink:href="#mb9ebfac9fb" y="219.588937"/>
     <use style="fill:#4682b4;stroke:#4682b4;" x="278.161844" xlink:href="#mb9ebfac9fb" y="218.748997"/>
     <use style="fill:#4682b4;stroke:#4682b4;" x="275.922558" xlink:href="#mb9ebfac9fb" y="217.726974"/>
     <use style="fill:#4682b4;stroke:#4682b4;" x="274.099102" xlink:href="#mb9ebfac9fb" y="216.898212"/>
     <use style="fill:#4682b4;stroke:#4682b4;" x="272.555002" xlink:href="#mb9ebfac9fb" y="216.163826"/>
     <use style="fill:#4682b4;stroke:#4682b4;" x="270.476739" xlink:href="#mb9ebfac9fb" y="215.226365"/>
     <use style="fill:#4682b4;stroke:#4682b4;" x="268.514774" xlink:href="#mb9ebfac9fb" y="214.420976"/>
     <use style="fill:#4682b4;stroke:#4682b4;" x="266.145139" xlink:href="#mb9ebfac9fb" y="213.168001"/>
     <use style="fill:#4682b4;stroke:#4682b4;" x="264.099461" xlink:href="#mb9ebfac9fb" y="212.355796"/>
     <use style="fill:#4682b4;stroke:#4682b4;" x="262.393168" xlink:href="#mb9ebfac9fb" y="211.488741"/>
     <use style="fill:#4682b4;stroke:#4682b4;" x="260.310695" xlink:href="#mb9ebfac9fb" y="210.589434"/>
     <use style="fill:#4682b4;stroke:#4682b4;" x="258.467022" xlink:href="#mb9ebfac9fb" y="209.671669"/>
     <use style="fill:#4682b4;stroke:#4682b4;" x="256.828379" xlink:href="#mb9ebfac9fb" y="208.83241"/>
     <use style="fill:#4682b4;stroke:#4682b4;" x="254.649562" xlink:href="#mb9ebfac9fb" y="207.899944"/>
     <use style="fill:#4682b4;stroke:#4682b4;" x="253.727436" xlink:href="#mb9ebfac9fb" y="207.228541"/>
     <use style="fill:#4682b4;stroke:#4682b4;" x="251.123554" xlink:href="#mb9ebfac9fb" y="206.1654"/>
     <use style="fill:#4682b4;stroke:#4682b4;" x="249.164415" xlink:href="#mb9ebfac9fb" y="205.296111"/>
     <use style="fill:#4682b4;stroke:#4682b4;" x="247.485025" xlink:href="#mb9ebfac9fb" y="204.434486"/>
     <use style="fill:#4682b4;stroke:#4682b4;" x="245.708388" xlink:href="#mb9ebfac9fb" y="203.577092"/>
     <use style="fill:#4682b4;stroke:#4682b4;" x="244.517432" xlink:href="#mb9ebfac9fb" y="202.810329"/>
     <use style="fill:#4682b4;stroke:#4682b4;" x="242.057899" xlink:href="#mb9ebfac9fb" y="201.826169"/>
     <use style="fill:#4682b4;stroke:#4682b4;" x="240.383059" xlink:href="#mb9ebfac9fb" y="200.995331"/>
     <use style="fill:#4682b4;stroke:#4682b4;" x="238.723911" xlink:href="#mb9ebfac9fb" y="200.144374"/>
     <use style="fill:#4682b4;stroke:#4682b4;" x="237.075936" xlink:href="#mb9ebfac9fb" y="199.291269"/>
     <use style="fill:#4682b4;stroke:#4682b4;" x="235.325388" xlink:href="#mb9ebfac9fb" y="198.458256"/>
     <use style="fill:#4682b4;stroke:#4682b4;" x="233.547356" xlink:href="#mb9ebfac9fb" y="197.569401"/>
     <use style="fill:#4682b4;stroke:#4682b4;" x="232.093577" xlink:href="#mb9ebfac9fb" y="196.773652"/>
     <use style="fill:#4682b4;stroke:#4682b4;" x="230.30968" xlink:href="#mb9ebfac9fb" y="195.89"/>
     <use style="fill:#4682b4;stroke:#4682b4;" x="228.667076" xlink:href="#mb9ebfac9fb" y="195.039664"/>
     <use style="fill:#4682b4;stroke:#4682b4;" x="227.041135" xlink:href="#mb9ebfac9fb" y="194.217116"/>
     <use style="fill:#4682b4;stroke:#4682b4;" x="225.431547" xlink:href="#mb9ebfac9fb" y="193.394322"/>
     <use style="fill:#4682b4;stroke:#4682b4;" x="223.790131" xlink:href="#mb9ebfac9fb" y="192.515078"/>
     <use style="fill:#4682b4;stroke:#4682b4;" x="222.214635" xlink:href="#mb9ebfac9fb" y="191.696229"/>
     <use style="fill:#4682b4;stroke:#4682b4;" x="220.618454" xlink:href="#mb9ebfac9fb" y="190.891833"/>
     <use style="fill:#4682b4;stroke:#4682b4;" x="218.970694" xlink:href="#mb9ebfac9fb" y="190.019994"/>
     <use style="fill:#4682b4;stroke:#4682b4;" x="217.377893" xlink:href="#mb9ebfac9fb" y="189.164262"/>
     <use style="fill:#4682b4;stroke:#4682b4;" x="215.823013" xlink:href="#mb9ebfac9fb" y="188.332495"/>
     <use style="fill:#4682b4;stroke:#4682b4;" x="214.267571" xlink:href="#mb9ebfac9fb" y="187.486533"/>
     <use style="fill:#4682b4;stroke:#4682b4;" x="212.772739" xlink:href="#mb9ebfac9fb" y="186.686543"/>
     <use style="fill:#4682b4;stroke:#4682b4;" x="211.461546" xlink:href="#mb9ebfac9fb" y="186.01191"/>
     <use style="fill:#4682b4;stroke:#4682b4;" x="209.678062" xlink:href="#mb9ebfac9fb" y="185.008434"/>
     <use style="fill:#4682b4;stroke:#4682b4;" x="208.084511" xlink:href="#mb9ebfac9fb" y="184.156253"/>
     <use style="fill:#4682b4;stroke:#4682b4;" x="206.651978" xlink:href="#mb9ebfac9fb" y="183.362992"/>
     <use style="fill:#4682b4;stroke:#4682b4;" x="205.774783" xlink:href="#mb9ebfac9fb" y="182.887819"/>
     <use style="fill:#4682b4;stroke:#4682b4;" x="203.681756" xlink:href="#mb9ebfac9fb" y="181.719624"/>
     <use style="fill:#4682b4;stroke:#4682b4;" x="202.172568" xlink:href="#mb9ebfac9fb" y="180.866528"/>
     <use style="fill:#4682b4;stroke:#4682b4;" x="200.672742" xlink:href="#mb9ebfac9fb" y="180.044288"/>
     <use style="fill:#4682b4;stroke:#4682b4;" x="199.235822" xlink:href="#mb9ebfac9fb" y="179.244574"/>
     <use style="fill:#4682b4;stroke:#4682b4;" x="197.77871" xlink:href="#mb9ebfac9fb" y="178.397844"/>
     <use style="fill:#4682b4;stroke:#4682b4;" x="196.367546" xlink:href="#mb9ebfac9fb" y="177.611101"/>
     <use style="fill:#4682b4;stroke:#4682b4;" x="194.849095" xlink:href="#mb9ebfac9fb" y="176.736935"/>
     <use style="fill:#4682b4;stroke:#4682b4;" x="193.380529" xlink:href="#mb9ebfac9fb" y="175.891629"/>
     <use style="fill:#4682b4;stroke:#4682b4;" x="192.000598" xlink:href="#mb9ebfac9fb" y="175.070369"/>
     <use style="fill:#4682b4;stroke:#4682b4;" x="190.571812" xlink:href="#mb9ebfac9fb" y="174.262152"/>
     <use style="fill:#4682b4;stroke:#4682b4;" x="189.126037" xlink:href="#mb9ebfac9fb" y="173.413696"/>
     <use style="fill:#4682b4;stroke:#4682b4;" x="187.722818" xlink:href="#mb9ebfac9fb" y="172.613468"/>
     <use style="fill:#4682b4;stroke:#4682b4;" x="186.319176" xlink:href="#mb9ebfac9fb" y="171.798426"/>
     <use style="fill:#4682b4;stroke:#4682b4;" x="184.8801" xlink:href="#mb9ebfac9fb" y="170.940601"/>
     <use style="fill:#4682b4;stroke:#4682b4;" x="183.521905" xlink:href="#mb9ebfac9fb" y="170.123018"/>
     <use style="fill:#4682b4;stroke:#4682b4;" x="182.164394" xlink:href="#mb9ebfac9fb" y="169.272268"/>
     <use style="fill:#4682b4;stroke:#4682b4;" x="180.720186" xlink:href="#mb9ebfac9fb" y="168.439647"/>
     <use style="fill:#4682b4;stroke:#4682b4;" x="179.422747" xlink:href="#mb9ebfac9fb" y="167.628193"/>
     <use style="fill:#4682b4;stroke:#4682b4;" x="177.925763" xlink:href="#mb9ebfac9fb" y="166.735175"/>
     <use style="fill:#4682b4;stroke:#4682b4;" x="176.667485" xlink:href="#mb9ebfac9fb" y="165.959778"/>
     <use style="fill:#4682b4;stroke:#4682b4;" x="175.339727" xlink:href="#mb9ebfac9fb" y="165.117361"/>
     <use style="fill:#4682b4;stroke:#4682b4;" x="173.963732" xlink:href="#mb9ebfac9fb" y="164.284072"/>
     <use style="fill:#4682b4;stroke:#4682b4;" x="172.631718" xlink:href="#mb9ebfac9fb" y="163.424154"/>
     <use style="fill:#4682b4;stroke:#4682b4;" x="171.423024" xlink:href="#mb9ebfac9fb" y="162.701331"/>
     <use style="fill:#4682b4;stroke:#4682b4;" x="169.979443" xlink:href="#mb9ebfac9fb" y="161.75463"/>
     <use style="fill:#4682b4;stroke:#4682b4;" x="168.658375" xlink:href="#mb9ebfac9fb" y="160.93645"/>
     <use style="fill:#4682b4;stroke:#4682b4;" x="167.327209" xlink:href="#mb9ebfac9fb" y="160.094988"/>
     <use style="fill:#4682b4;stroke:#4682b4;" x="166.059873" xlink:href="#mb9ebfac9fb" y="159.240931"/>
     <use style="fill:#4682b4;stroke:#4682b4;" x="164.71374" xlink:href="#mb9ebfac9fb" y="158.426752"/>
     <use style="fill:#4682b4;stroke:#4682b4;" x="163.428737" xlink:href="#mb9ebfac9fb" y="157.572109"/>
     <use style="fill:#4682b4;stroke:#4682b4;" x="162.150317" xlink:href="#mb9ebfac9fb" y="156.713837"/>
     <use style="fill:#4682b4;stroke:#4682b4;" x="160.840906" xlink:href="#mb9ebfac9fb" y="155.844427"/>
     <use style="fill:#4682b4;stroke:#4682b4;" x="159.503583" xlink:href="#mb9ebfac9fb" y="155.012118"/>
     <use style="fill:#4682b4;stroke:#4682b4;" x="158.389721" xlink:href="#mb9ebfac9fb" y="154.256059"/>
     <use style="fill:#4682b4;stroke:#4682b4;" x="156.938225" xlink:href="#mb9ebfac9fb" y="153.283717"/>
     <use style="fill:#4682b4;stroke:#4682b4;" x="155.7014" xlink:href="#mb9ebfac9fb" y="152.441595"/>
     <use style="fill:#4682b4;stroke:#4682b4;" x="154.19312" xlink:href="#mb9ebfac9fb" y="151.428766"/>
     <use style="fill:#4682b4;stroke:#4682b4;" x="153.158895" xlink:href="#mb9ebfac9fb" y="150.682109"/>
     <use style="fill:#4682b4;stroke:#4682b4;" x="151.854123" xlink:href="#mb9ebfac9fb" y="149.827101"/>
     <use style="fill:#4682b4;stroke:#4682b4;" x="150.652413" xlink:href="#mb9ebfac9fb" y="148.983565"/>
     <use style="fill:#4682b4;stroke:#4682b4;" x="149.328442" xlink:href="#mb9ebfac9fb" y="148.044551"/>
     <use style="fill:#4682b4;stroke:#4682b4;" x="148.095366" xlink:href="#mb9ebfac9fb" y="147.204451"/>
     <use style="fill:#4682b4;stroke:#4682b4;" x="146.874433" xlink:href="#mb9ebfac9fb" y="146.330818"/>
     <use style="fill:#4682b4;stroke:#4682b4;" x="145.599054" xlink:href="#mb9ebfac9fb" y="145.4293"/>
     <use style="fill:#4682b4;stroke:#4682b4;" x="144.383279" xlink:href="#mb9ebfac9fb" y="144.552192"/>
     <use style="fill:#4682b4;stroke:#4682b4;" x="143.146972" xlink:href="#mb9ebfac9fb" y="143.655753"/>
     <use style="fill:#4682b4;stroke:#4682b4;" x="141.903556" xlink:href="#mb9ebfac9fb" y="142.761547"/>
     <use style="fill:#4682b4;stroke:#4682b4;" x="140.69541" xlink:href="#mb9ebfac9fb" y="141.846052"/>
     <use style="fill:#4682b4;stroke:#4682b4;" x="139.45761" xlink:href="#mb9ebfac9fb" y="140.952549"/>
     <use style="fill:#4682b4;stroke:#4682b4;" x="138.236754" xlink:href="#mb9ebfac9fb" y="140.039673"/>
     <use style="fill:#4682b4;stroke:#4682b4;" x="137.024887" xlink:href="#mb9ebfac9fb" y="139.110969"/>
     <use style="fill:#4682b4;stroke:#4682b4;" x="135.8011" xlink:href="#mb9ebfac9fb" y="138.20961"/>
     <use style="fill:#4682b4;stroke:#4682b4;" x="134.621626" xlink:href="#mb9ebfac9fb" y="137.291396"/>
     <use style="fill:#4682b4;stroke:#4682b4;" x="133.352313" xlink:href="#mb9ebfac9fb" y="136.337093"/>
     <use style="fill:#4682b4;stroke:#4682b4;" x="132.162277" xlink:href="#mb9ebfac9fb" y="135.412232"/>
     <use style="fill:#4682b4;stroke:#4682b4;" x="130.957891" xlink:href="#mb9ebfac9fb" y="134.464014"/>
     <use style="fill:#4682b4;stroke:#4682b4;" x="129.744942" xlink:href="#mb9ebfac9fb" y="133.511434"/>
     <use style="fill:#4682b4;stroke:#4682b4;" x="128.435792" xlink:href="#mb9ebfac9fb" y="132.487215"/>
     <use style="fill:#4682b4;stroke:#4682b4;" x="127.349951" xlink:href="#mb9ebfac9fb" y="131.599212"/>
     <use style="fill:#4682b4;stroke:#4682b4;" x="126.165011" xlink:href="#mb9ebfac9fb" y="130.642008"/>
     <use style="fill:#4682b4;stroke:#4682b4;" x="124.962424" xlink:href="#mb9ebfac9fb" y="129.672835"/>
     <use style="fill:#4682b4;stroke:#4682b4;" x="123.794748" xlink:href="#mb9ebfac9fb" y="128.704943"/>
     <use style="fill:#4682b4;stroke:#4682b4;" x="122.547173" xlink:href="#mb9ebfac9fb" y="127.679071"/>
     <use style="fill:#4682b4;stroke:#4682b4;" x="121.38082" xlink:href="#mb9ebfac9fb" y="126.698215"/>
     <use style="fill:#4682b4;stroke:#4682b4;" x="120.218752" xlink:href="#mb9ebfac9fb" y="125.699297"/>
     <use style="fill:#4682b4;stroke:#4682b4;" x="118.774804" xlink:href="#mb9ebfac9fb" y="124.488193"/>
     <use style="fill:#4682b4;stroke:#4682b4;" x="117.843959" xlink:href="#mb9ebfac9fb" y="123.65411"/>
     <use style="fill:#4682b4;stroke:#4682b4;" x="116.378605" xlink:href="#mb9ebfac9fb" y="122.397573"/>
     <use style="fill:#4682b4;stroke:#4682b4;" x="115.471227" xlink:href="#mb9ebfac9fb" y="121.606139"/>
     <use style="fill:#4682b4;stroke:#4682b4;" x="114.292948" xlink:href="#mb9ebfac9fb" y="120.556554"/>
     <use style="fill:#4682b4;stroke:#4682b4;" x="113.20511" xlink:href="#mb9ebfac9fb" y="119.56903"/>
     <use style="fill:#4682b4;stroke:#4682b4;" x="111.93302" xlink:href="#mb9ebfac9fb" y="118.415411"/>
     <use style="fill:#4682b4;stroke:#4682b4;" x="110.740868" xlink:href="#mb9ebfac9fb" y="117.329805"/>
     <use style="fill:#4682b4;stroke:#4682b4;" x="109.604852" xlink:href="#mb9ebfac9fb" y="116.262763"/>
     <use style="fill:#4682b4;stroke:#4682b4;" x="108.400208" xlink:href="#mb9ebfac9fb" y="115.160725"/>
     <use style="fill:#4682b4;stroke:#4682b4;" x="107.234276" xlink:href="#mb9ebfac9fb" y="114.033229"/>
     <use style="fill:#4682b4;stroke:#4682b4;" x="106.057963" xlink:href="#mb9ebfac9fb" y="112.920259"/>
     <use style="fill:#4682b4;stroke:#4682b4;" x="104.908054" xlink:href="#mb9ebfac9fb" y="111.758146"/>
     <use style="fill:#4682b4;stroke:#4682b4;" x="103.489708" xlink:href="#mb9ebfac9fb" y="110.365135"/>
     <use style="fill:#4682b4;stroke:#4682b4;" x="102.543118" xlink:href="#mb9ebfac9fb" y="109.443132"/>
     <use style="fill:#4682b4;stroke:#4682b4;" x="101.342563" xlink:href="#mb9ebfac9fb" y="108.219417"/>
     <use style="fill:#4682b4;stroke:#4682b4;" x="100.17726" xlink:href="#mb9ebfac9fb" y="107.042933"/>
     <use style="fill:#4682b4;stroke:#4682b4;" x="99.025029" xlink:href="#mb9ebfac9fb" y="105.874619"/>
     <use style="fill:#4682b4;stroke:#4682b4;" x="97.820072" xlink:href="#mb9ebfac9fb" y="104.588536"/>
     <use style="fill:#4682b4;stroke:#4682b4;" x="96.647041" xlink:href="#mb9ebfac9fb" y="103.331923"/>
     <use style="fill:#4682b4;stroke:#4682b4;" x="95.387699" xlink:href="#mb9ebfac9fb" y="101.956732"/>
     <use style="fill:#4682b4;stroke:#4682b4;" x="94.227803" xlink:href="#mb9ebfac9fb" y="100.712991"/>
     <use style="fill:#4682b4;stroke:#4682b4;" x="93.036463" xlink:href="#mb9ebfac9fb" y="99.356612"/>
     <use style="fill:#4682b4;stroke:#4682b4;" x="91.922213" xlink:href="#mb9ebfac9fb" y="98.070573"/>
     <use style="fill:#4682b4;stroke:#4682b4;" x="90.082313" xlink:href="#mb9ebfac9fb" y="95.97671"/>
     <use style="fill:#4682b4;stroke:#4682b4;" x="89.540445" xlink:href="#mb9ebfac9fb" y="95.313172"/>
     <use style="fill:#4682b4;stroke:#4682b4;" x="88.330327" xlink:href="#mb9ebfac9fb" y="93.850991"/>
     <use style="fill:#4682b4;stroke:#4682b4;" x="87.010579" xlink:href="#mb9ebfac9fb" y="92.264048"/>
     <use style="fill:#4682b4;stroke:#4682b4;" x="85.704053" xlink:href="#mb9ebfac9fb" y="90.63156"/>
     <use style="fill:#4682b4;stroke:#4682b4;" x="84.756817" xlink:href="#mb9ebfac9fb" y="89.362274"/>
     <use style="fill:#4682b4;stroke:#4682b4;" x="83.509537" xlink:href="#mb9ebfac9fb" y="87.804794"/>
     <use style="fill:#4682b4;stroke:#4682b4;" x="82.332866" xlink:href="#mb9ebfac9fb" y="86.232071"/>
     <use style="fill:#4682b4;stroke:#4682b4;" x="81.123624" xlink:href="#mb9ebfac9fb" y="84.57499"/>
     <use style="fill:#4682b4;stroke:#4682b4;" x="79.901947" xlink:href="#mb9ebfac9fb" y="82.873017"/>
     <use style="fill:#4682b4;stroke:#4682b4;" x="78.689883" xlink:href="#mb9ebfac9fb" y="81.088076"/>
     <use style="fill:#4682b4;stroke:#4682b4;" x="77.429669" xlink:href="#mb9ebfac9fb" y="79.21876"/>
     <use style="fill:#4682b4;stroke:#4682b4;" x="75.990077" xlink:href="#mb9ebfac9fb" y="77.010391"/>
     <use style="fill:#4682b4;stroke:#4682b4;" x="74.974392" xlink:href="#mb9ebfac9fb" y="75.400126"/>
     <use style="fill:#4682b4;stroke:#4682b4;" x="73.735408" xlink:href="#mb9ebfac9fb" y="73.322755"/>
     <use style="fill:#4682b4;stroke:#4682b4;" x="72.199963" xlink:href="#mb9ebfac9fb" y="70.723965"/>
     <use style="fill:#4682b4;stroke:#4682b4;" x="71.211247" xlink:href="#mb9ebfac9fb" y="68.921315"/>
     <use style="fill:#4682b4;stroke:#4682b4;" x="69.925573" xlink:href="#mb9ebfac9fb" y="66.554179"/>
     <use style="fill:#4682b4;stroke:#4682b4;" x="68.637842" xlink:href="#mb9ebfac9fb" y="63.934252"/>
     <use style="fill:#4682b4;stroke:#4682b4;" x="67.324868" xlink:href="#mb9ebfac9fb" y="61.302077"/>
     <use style="fill:#4682b4;stroke:#4682b4;" x="66.010137" xlink:href="#mb9ebfac9fb" y="58.353733"/>
     <use style="fill:#4682b4;stroke:#4682b4;" x="64.68138" xlink:href="#mb9ebfac9fb" y="55.125074"/>
     <use style="fill:#4682b4;stroke:#4682b4;" x="63.16211" xlink:href="#mb9ebfac9fb" y="51.114012"/>
     <use style="fill:#4682b4;stroke:#4682b4;" x="61.945744" xlink:href="#mb9ebfac9fb" y="47.406079"/>
     <use style="fill:#4682b4;stroke:#4682b4;" x="60.523539" xlink:href="#mb9ebfac9fb" y="42.41415"/>
     <use style="fill:#4682b4;stroke:#4682b4;" x="59.055622" xlink:href="#mb9ebfac9fb" y="35.753939"/>
     <use style="fill:#4682b4;stroke:#4682b4;" x="57.557727" xlink:href="#mb9ebfac9fb" y="19.296"/>
    </g>
   </g>
   <g id="patch_3">
    <path d="M 41.325 273.312 
L 41.325 7.2 
" style="fill:none;stroke:#000000;stroke-linecap:square;stroke-linejoin:miter;stroke-width:0.8;"/>
   </g>
   <g id="patch_4">
    <path d="M 398.445 273.312 
L 398.445 7.2 
" style="fill:none;stroke:#000000;stroke-linecap:square;stroke-linejoin:miter;stroke-width:0.8;"/>
   </g>
   <g id="patch_5">
    <path d="M 41.325 273.312 
L 398.445 273.312 
" style="fill:none;stroke:#000000;stroke-linecap:square;stroke-linejoin:miter;stroke-width:0.8;"/>
   </g>
   <g id="patch_6">
    <path d="M 41.325 7.2 
L 398.445 7.2 
" style="fill:none;stroke:#000000;stroke-linecap:square;stroke-linejoin:miter;stroke-width:0.8;"/>
   </g>
   <g id="legend_1">
    <g id="patch_7">
     <path d="M 299.445 28.45 
L 391.445 28.45 
Q 393.445 28.45 393.445 26.45 
L 393.445 14.2 
Q 393.445 12.2 391.445 12.2 
L 299.445 12.2 
Q 297.445 12.2 297.445 14.2 
L 297.445 26.45 
Q 297.445 28.45 299.445 28.45 
z
" style="fill:#ffffff;opacity:0.8;stroke:#cccccc;stroke-linejoin:miter;"/>
    </g>
    <g id="line2d_26"/>
    <g id="line2d_27">
     <g>
      <use style="fill:#4682b4;stroke:#4682b4;" x="311.445" xlink:href="#mb9ebfac9fb" y="19.7"/>
     </g>
    </g>
    <g id="text_15">
     <!-- Pareto Front -->
     <defs>
      <path d="M 46.09375 48.4375 
Q 46.09375 39.0625 40.625 33.59375 
Q 35.15625 28.125 25.390625 28.125 
L 14.0625 28.125 
L 14.0625 1.953125 
L 5.078125 1.953125 
L 5.078125 68.75 
L 25.390625 68.75 
Q 35.15625 68.75 40.625 63.28125 
Q 46.09375 57.8125 46.09375 48.4375 
z
M 37.109375 48.4375 
Q 37.109375 55.859375 33.59375 58.59375 
Q 30.078125 61.328125 23.046875 61.328125 
L 14.0625 61.328125 
L 14.0625 35.546875 
L 23.046875 35.546875 
Q 30.078125 35.546875 33.59375 38.28125 
Q 37.109375 41.015625 37.109375 48.4375 
z
" id="SimHei-80"/>
      <path d="M 44.921875 1.953125 
L 35.546875 1.953125 
Q 34.765625 2.734375 34.375 4.09375 
Q 33.984375 5.46875 33.984375 7.421875 
Q 31.25 4.296875 27.34375 2.734375 
Q 23.4375 1.171875 19.140625 1.171875 
Q 12.890625 1.171875 8.59375 4.296875 
Q 4.296875 7.421875 4.296875 13.28125 
Q 4.296875 19.140625 8.203125 22.65625 
Q 12.109375 26.171875 20.3125 27.34375 
Q 25.78125 28.125 29.875 29.296875 
Q 33.984375 30.46875 33.984375 32.421875 
Q 33.984375 34.765625 32.21875 37.109375 
Q 30.46875 39.453125 24.609375 39.453125 
Q 19.921875 39.453125 17.765625 37.6875 
Q 15.625 35.9375 14.84375 32.8125 
L 6.25 32.8125 
Q 7.03125 39.0625 11.90625 42.765625 
Q 16.796875 46.484375 24.609375 46.484375 
Q 33.203125 46.484375 37.5 42.578125 
Q 41.796875 38.671875 41.796875 31.640625 
L 41.796875 10.15625 
Q 41.796875 7.8125 42.578125 5.859375 
Q 43.359375 3.90625 44.921875 1.953125 
z
M 33.984375 16.40625 
L 33.984375 24.21875 
Q 31.640625 23.4375 29.484375 22.84375 
Q 27.34375 22.265625 22.265625 21.484375 
Q 16.40625 20.703125 14.640625 18.75 
Q 12.890625 16.796875 12.890625 14.0625 
Q 12.890625 11.71875 14.640625 9.953125 
Q 16.40625 8.203125 19.921875 8.203125 
Q 23.4375 8.203125 27.53125 10.15625 
Q 31.640625 12.109375 33.984375 16.40625 
z
" id="SimHei-97"/>
      <path d="M 39.0625 37.890625 
Q 31.640625 39.0625 26.5625 35.734375 
Q 21.484375 32.421875 17.96875 24.21875 
L 17.96875 1.953125 
L 10.15625 1.953125 
L 10.15625 45.703125 
L 17.96875 45.703125 
L 17.96875 34.375 
Q 21.484375 40.625 26.75 43.546875 
Q 32.03125 46.484375 39.0625 46.484375 
z
" id="SimHei-114"/>
      <path d="M 44.53125 16.796875 
Q 43.75 9.765625 38.28125 5.46875 
Q 32.8125 1.171875 25.390625 1.171875 
Q 16.015625 1.171875 9.953125 7.21875 
Q 3.90625 13.28125 3.90625 23.828125 
Q 3.90625 34.375 9.953125 40.421875 
Q 16.015625 46.484375 25.390625 46.484375 
Q 33.59375 46.484375 38.859375 41.203125 
Q 44.140625 35.9375 44.140625 23.828125 
L 12.5 23.828125 
Q 12.5 15.234375 16.203125 11.71875 
Q 19.921875 8.203125 25.390625 8.203125 
Q 29.6875 8.203125 32.421875 10.34375 
Q 35.15625 12.5 35.9375 16.796875 
z
M 35.15625 30.078125 
Q 34.375 35.546875 31.640625 37.6875 
Q 28.90625 39.84375 24.609375 39.84375 
Q 20.703125 39.84375 17.578125 37.6875 
Q 14.453125 35.546875 12.890625 30.078125 
z
" id="SimHei-101"/>
      <path d="M 42.96875 3.125 
Q 41.015625 2.34375 38.46875 1.75 
Q 35.9375 1.171875 31.640625 1.171875 
Q 24.609375 1.171875 20.3125 5.078125 
Q 16.015625 8.984375 16.015625 16.015625 
L 16.015625 39.453125 
L 2.734375 39.453125 
L 2.734375 45.703125 
L 16.015625 45.703125 
L 16.015625 60.9375 
L 23.828125 60.9375 
L 23.828125 45.703125 
L 39.84375 45.703125 
L 39.84375 39.453125 
L 23.828125 39.453125 
L 23.828125 15.625 
Q 23.828125 12.5 25.390625 10.34375 
Q 26.953125 8.203125 31.25 8.203125 
Q 35.546875 8.203125 38.28125 8.984375 
Q 41.015625 9.765625 42.96875 10.9375 
z
" id="SimHei-116"/>
      <path d="M 45.703125 23.828125 
Q 45.703125 13.671875 39.453125 7.421875 
Q 33.203125 1.171875 24.609375 1.171875 
Q 16.015625 1.171875 9.765625 7.421875 
Q 3.515625 13.671875 3.515625 23.828125 
Q 3.515625 33.984375 9.765625 40.234375 
Q 16.015625 46.484375 24.609375 46.484375 
Q 33.203125 46.484375 39.453125 40.234375 
Q 45.703125 33.984375 45.703125 23.828125 
z
M 37.109375 23.828125 
Q 37.109375 31.640625 33.203125 35.546875 
Q 29.296875 39.453125 24.609375 39.453125 
Q 19.921875 39.453125 16.015625 35.546875 
Q 12.109375 31.640625 12.109375 23.828125 
Q 12.109375 16.015625 16.015625 12.109375 
Q 19.921875 8.203125 24.609375 8.203125 
Q 29.296875 8.203125 33.203125 12.109375 
Q 37.109375 16.015625 37.109375 23.828125 
z
" id="SimHei-111"/>
      <path id="SimHei-32"/>
      <path d="M 43.75 1.953125 
L 35.9375 1.953125 
L 35.9375 30.078125 
Q 35.9375 34.765625 33.59375 37.5 
Q 31.25 40.234375 27.34375 40.234375 
Q 22.265625 40.234375 17.765625 34.953125 
Q 13.28125 29.6875 13.28125 21.875 
L 13.28125 1.953125 
L 5.46875 1.953125 
L 5.46875 45.703125 
L 13.28125 45.703125 
L 13.28125 37.5 
Q 16.40625 41.796875 20.109375 44.140625 
Q 23.828125 46.484375 29.6875 46.484375 
Q 36.71875 46.484375 40.234375 42.578125 
Q 43.75 38.671875 43.75 32.8125 
z
" id="SimHei-110"/>
     </defs>
     <g transform="translate(329.445 23.2)scale(0.1 -0.1)">
      <use xlink:href="#SimHei-80"/>
      <use x="50" xlink:href="#SimHei-97"/>
      <use x="100" xlink:href="#SimHei-114"/>
      <use x="150" xlink:href="#SimHei-101"/>
      <use x="200" xlink:href="#SimHei-116"/>
      <use x="250" xlink:href="#SimHei-111"/>
      <use x="300" xlink:href="#SimHei-32"/>
      <use x="350" xlink:href="#SimHei-70"/>
      <use x="400" xlink:href="#SimHei-114"/>
      <use x="450" xlink:href="#SimHei-111"/>
      <use x="500" xlink:href="#SimHei-110"/>
      <use x="550" xlink:href="#SimHei-116"/>
     </g>
    </g>
   </g>
  </g>
 </g>
 <defs>
  <clipPath id="pa80434d353">
   <rect height="266.112" width="357.12" x="41.325" y="7.2"/>
  </clipPath>
 </defs>
</svg>
